REM DIRINDEX 1\2,1\3,1\4,1\5,1\6
REM DIRNAME folder01,folder02,folder03,folder04,folder05,folder06
TITLE ""
FILE "DISC4Track10.mp3" MP3
  TRACK 01 AUDIO
    TITLE "0:"
    INDEX 01 00:00:00
  TRACK 02 AUDIO
    TITLE "3:cjc129_3164"
    INDEX 01 00:00:05
  TRACK 03 AUDIO
    TITLE "0:"
    INDEX 01 00:01:24
  TRACK 04 AUDIO
    TITLE "5:cjc129_3165"
    INDEX 01 00:01:56
  TRACK 05 AUDIO
    TITLE "0:"
    INDEX 01 00:02:63
  TRACK 06 AUDIO
    TITLE "4:cjc129_3166"
    INDEX 01 00:03:57
  TRACK 07 AUDIO
    TITLE "0:"
    INDEX 01 00:05:01
  TRACK 08 AUDIO
    TITLE "6:cjc129_3167"
    INDEX 01 00:05:32
  TRACK 09 AUDIO
    TITLE "0:"
    INDEX 01 00:10:19
  TRACK 10 AUDIO
    TITLE "3:cjc129_3168"
    INDEX 01 00:11:68
  TRACK 11 AUDIO
    TITLE "0:"
    INDEX 01 00:14:72
  TRACK 12 AUDIO
    TITLE "5:cjc129_3169"
    INDEX 01 00:15:30
  TRACK 13 AUDIO
    TITLE "0:"
    INDEX 01 00:19:48
  TRACK 14 AUDIO
    TITLE "4:cjc129_3170"
    INDEX 01 00:20:39
  TRACK 15 AUDIO
    TITLE "0:"
    INDEX 01 00:23:46
  TRACK 16 AUDIO
    TITLE "6:cjc129_3171"
    INDEX 01 00:24:02
  TRACK 17 AUDIO
    TITLE "0:"
    INDEX 01 00:28:10
  TRACK 18 AUDIO
    TITLE "3:cjc129_3172"
    INDEX 01 00:29:60
  TRACK 19 AUDIO
    TITLE "0:"
    INDEX 01 00:31:47
  TRACK 20 AUDIO
    TITLE "5:cjc129_3173"
    INDEX 01 00:32:03
  TRACK 21 AUDIO
    TITLE "0:"
    INDEX 01 00:33:66
  TRACK 22 AUDIO
    TITLE "4:cjc129_3174"
    INDEX 01 00:34:57
  TRACK 23 AUDIO
    TITLE "0:"
    INDEX 01 00:36:40
  TRACK 24 AUDIO
    TITLE "6:cjc129_3175"
    INDEX 01 00:37:01
  TRACK 25 AUDIO
    TITLE "0:"
    INDEX 01 00:42:12
  TRACK 26 AUDIO
    TITLE "3:cjc129_3176"
    INDEX 01 00:43:60
  TRACK 27 AUDIO
    TITLE "0:"
    INDEX 01 00:45:33
  TRACK 28 AUDIO
    TITLE "5:cjc129_3177"
    INDEX 01 00:45:63
  TRACK 29 AUDIO
    TITLE "0:"
    INDEX 01 00:48:06
  TRACK 30 AUDIO
    TITLE "4:cjc129_3178"
    INDEX 01 00:48:73
  TRACK 31 AUDIO
    TITLE "0:"
    INDEX 01 00:50:46
  TRACK 32 AUDIO
    TITLE "6:cjc129_3179"
    INDEX 01 00:51:01
  TRACK 33 AUDIO
    TITLE "0:"
    INDEX 01 00:55:63
  TRACK 34 AUDIO
    TITLE "2:cjc129_3180"
    INDEX 01 00:57:45
  TRACK 35 AUDIO
    TITLE "0:"
    INDEX 01 01:00:12
  TRACK 36 AUDIO
    TITLE "3:cjc129_3181"
    INDEX 01 01:01:27
  TRACK 37 AUDIO
    TITLE "0:"
    INDEX 01 01:02:63
  TRACK 38 AUDIO
    TITLE "5:cjc129_3182"
    INDEX 01 01:03:20
  TRACK 39 AUDIO
    TITLE "0:"
    INDEX 01 01:07:43
  TRACK 40 AUDIO
    TITLE "4:cjc129_3183"
    INDEX 01 01:08:33
  TRACK 41 AUDIO
    TITLE "0:"
    INDEX 01 01:09:69
  TRACK 42 AUDIO
    TITLE "6:cjc129_3184"
    INDEX 01 01:10:26
  TRACK 43 AUDIO
    TITLE "0:"
    INDEX 01 01:15:54
  TRACK 44 AUDIO
    TITLE "3:cjc129_3185"
    INDEX 01 01:17:28
  TRACK 45 AUDIO
    TITLE "0:"
    INDEX 01 01:18:66
  TRACK 46 AUDIO
    TITLE "5:cjc129_3186"
    INDEX 01 01:19:23
  TRACK 47 AUDIO
    TITLE "0:"
    INDEX 01 01:26:54
  TRACK 48 AUDIO
    TITLE "4:cjc129_3187"
    INDEX 01 01:27:42
  TRACK 49 AUDIO
    TITLE "0:"
    INDEX 01 01:29:07
  TRACK 50 AUDIO
    TITLE "6:cjc129_3188"
    INDEX 01 01:29:39
  TRACK 51 AUDIO
    TITLE "0:"
    INDEX 01 01:33:52
  TRACK 52 AUDIO
    TITLE "3:cjc129_3189"
    INDEX 01 01:35:27
  TRACK 53 AUDIO
    TITLE "0:"
    INDEX 01 01:38:30
  TRACK 54 AUDIO
    TITLE "5:cjc129_3190"
    INDEX 01 01:38:61
  TRACK 55 AUDIO
    TITLE "0:"
    INDEX 01 01:40:60
  TRACK 56 AUDIO
    TITLE "4:cjc129_3191"
    INDEX 01 01:41:54
  TRACK 57 AUDIO
    TITLE "0:"
    INDEX 01 01:44:58
  TRACK 58 AUDIO
    TITLE "6:cjc129_3192"
    INDEX 01 01:45:12
  TRACK 59 AUDIO
    TITLE "0:"
    INDEX 01 01:50:27
